HIERARCHY
ROOT Hips
{
	OFFSET 0.000000 0.000000 0.000000
	CHANNELS 6 Xposition Yposition Zposition Zrotation Yrotation Xrotation 
	JOINT LHipJoint
	{
		OFFSET 0.000000 0.000000 0.000000
		CHANNELS 3 Zrotation Yrotation Xrotation
		JOINT LeftUpLeg
		{
			OFFSET 1.363060 -1.794630 0.839290
			CHANNELS 3 Zrotation Yrotation Xrotation
			JOINT LeftLeg
			{
				OFFSET 2.448110 -6.726130 0.000000
				CHANNELS 3 Zrotation Yrotation Xrotation
				JOINT LeftFoot
				{
					OFFSET 2.562200 -7.039590 0.000000
					CHANNELS 3 Zrotation Yrotation Xrotation
					JOINT LeftToeBase
					{
						OFFSET 0.157640 -0.433110 2.322550
						CHANNELS 3 Zrotation Yrotation Xrotation
						End Site
						{
							OFFSET 0.000000 0.000000 0.000000
						}
					}
				}
			}
		}
	}
	JOINT RHipJoint
	{
		OFFSET 0.000000 0.000000 0.000000
		CHANNELS 3 Zrotation Yrotation Xrotation
		JOINT RightUpLeg
		{
			OFFSET -1.305520 -1.794630 0.839290
			CHANNELS 3 Zrotation Yrotation Xrotation
			JOINT RightLeg
			{
				OFFSET -2.542530 -6.985550 0.000000
				CHANNELS 3 Zrotation Yrotation Xrotation
				JOINT RightFoot
				{
					OFFSET -2.568260 -7.056230 0.000000
					CHANNELS 3 Zrotation Yrotation Xrotation
					JOINT RightToeBase
					{
						OFFSET -0.164730 -0.452590 2.363150
						CHANNELS 3 Zrotation Yrotation Xrotation
						End Site
						{
							OFFSET 0.000000 0.000000 0.000000
						}
					}
				}
			}
		}
	}
	JOINT LowerBack
	{
		OFFSET 0.000000 0.000000 0.000000
		CHANNELS 3 Zrotation Yrotation Xrotation
		JOINT Spine
		{
			OFFSET 0.028270 2.035590 -0.193380
			CHANNELS 3 Zrotation Yrotation Xrotation
			JOINT Spine1
			{
				OFFSET 0.056720 2.048850 -0.042750
				CHANNELS 3 Zrotation Yrotation Xrotation
				JOINT Neck
				{
					OFFSET 0.000000 0.000000 0.000000
					CHANNELS 3 Zrotation Yrotation Xrotation
					JOINT Neck1
					{
						OFFSET -0.054170 1.746240 0.172020
						CHANNELS 3 Zrotation Yrotation Xrotation
						JOINT Head
						{
							OFFSET 0.104070 1.761360 -0.123970
							CHANNELS 3 Zrotation Yrotation Xrotation
							End Site
							{
								OFFSET 0.000000 0.000000 0.000000
							}
						}
					}
				}
				JOINT LeftShoulder
				{
					OFFSET 0.000000 0.000000 0.000000
					CHANNELS 3 Zrotation Yrotation Xrotation
					JOINT LeftArm
					{
						OFFSET 3.362410 1.200890 -0.311210
						CHANNELS 3 Zrotation Yrotation Xrotation
						JOINT LeftForeArm
						{
							OFFSET 4.983000 -0.000000 -0.000000
							CHANNELS 3 Zrotation Yrotation Xrotation
							JOINT LeftHand
							{
								OFFSET 3.483560 -0.000000 -0.000000
								CHANNELS 3 Zrotation Yrotation Xrotation
								JOINT LeftFingerBase
								{
									OFFSET 0.000000 0.000000 0.000000
									CHANNELS 3 Zrotation Yrotation Xrotation
									JOINT LeftHandIndex1
									{
										OFFSET 0.715260 -0.000000 -0.000000
										CHANNELS 3 Zrotation Yrotation Xrotation
										End Site
										{
											OFFSET 0.000000 0.000000 0.000000
										}
									}
								}
								JOINT LThumb
								{
									OFFSET 0.000000 0.000000 0.000000
									CHANNELS 3 Zrotation Yrotation Xrotation
									End Site
									{
										OFFSET 0.000000 0.000000 0.000000
									}
								}
							}
						}
					}
				}
				JOINT RightShoulder
				{
					OFFSET 0.000000 0.000000 0.000000
					CHANNELS 3 Zrotation Yrotation Xrotation
					JOINT RightArm
					{
						OFFSET -3.136600 1.374050 -0.404650
						CHANNELS 3 Zrotation Yrotation Xrotation
						JOINT RightForeArm
						{
							OFFSET -5.241900 -0.000000 -0.000000
							CHANNELS 3 Zrotation Yrotation Xrotation
							JOINT RightHand
							{
								OFFSET -3.444170 -0.000000 -0.000000
								CHANNELS 3 Zrotation Yrotation Xrotation
								JOINT RightFingerBase
								{
									OFFSET 0.000000 0.000000 0.000000
									CHANNELS 3 Zrotation Yrotation Xrotation
									JOINT RightHandIndex1
									{
										OFFSET -0.622530 -0.000000 -0.000000
										CHANNELS 3 Zrotation Yrotation Xrotation
										End Site
										{
											OFFSET 0.000000 0.000000 0.000000
										}
									}
								}
								JOINT RThumb
								{
									OFFSET 0.000000 0.000000 0.000000
									CHANNELS 3 Zrotation Yrotation Xrotation
									End Site
									{
										OFFSET 0.000000 0.000000 0.000000
									}
								}
							}
						}
					}
				}
			}
		}
	}
}
MOTION
Frames: 5
Frame Time: 0.008333
3.848606 17.337255 0.867082 8.248866 -85.050409 4.540224 -11.168526 0.778135 1.140424 -5.670685 12.857183 -19.724181 -2.661613 -1.351314 -0.301736 0.187687 3.290123 6.044280 1.105200 -0.000000 -36.557999 9.645486 -2.302340 2.342058 3.744022 -6.268674 -13.467687 2.068952 1.291888 -2.814570 -1.499599 -8.769458 1.877016 -2.272700 -0.000000 -36.045400 0.664272 3.594084 -4.278500 0.512375 3.691485 -4.562054 1.538185 3.805573 -5.207472 -6.268661 6.591532 2.873289 -0.626964 -0.234959 2.983851 0.000000 0.000000 0.000000 1.688402 -3.567755 -5.316974 -94.388230 -26.529661 32.776450 179.559454 -53.930662 179.932383 2.961001 -7.383702 -0.211111 0.105413 1.059717 -0.000000 0.000000 0.000000 0.000000 0.000000 0.000000 0.000000 -16.955973 12.480986 2.709644 -7.102884 69.858741 -108.268145 -3.985584 4.287758 -0.080698 -13.769931 8.037482 -1.044661 0.209937 -0.463720 -0.000000 0.000000 0.000000 0.000000 0.000000 0.000000 0.000000 
3.839098 17.339111 0.871761 6.609018 -84.946836 6.192182 -11.146857 0.783799 1.115454 -5.595081 12.925148 -19.675452 -2.665990 -1.353358 -0.424987 0.176917 3.195537 6.112477 1.087700 0.000000 -36.593300 9.671563 -2.297254 2.307875 3.845548 -6.349948 -13.398067 2.080304 1.291178 -2.844649 -1.490171 -8.762394 1.961189 -2.283600 0.000000 -36.176900 0.766525 3.581616 -4.216569 0.477911 3.667065 -4.651663 1.332976 3.807834 -5.644037 -6.021118 5.868886 3.003801 -0.696274 -0.242569 3.025952 0.000000 0.000000 0.000000 2.307141 -3.571428 -5.144570 -94.432538 -25.703179 32.494324 179.480925 -53.443332 179.929606 3.120293 -7.358478 -0.222502 0.102801 1.064530 -0.000000 0.000000 0.000000 0.000000 0.000000 0.000000 0.000000 -16.821785 11.824038 1.636712 0.146022 71.086790 -100.438813 -4.131866 5.486539 -0.080604 -13.056408 8.866498 -1.088098 0.182860 -0.483659 -0.000000 0.000000 0.000000 0.000000 0.000000 0.000000 0.000000 
3.827802 17.339862 0.878710 4.710121 -84.549268 8.311396 -11.124951 0.745183 0.984284 -5.477176 12.711711 -19.646528 -2.660538 -1.340249 -0.616237 0.171746 3.090546 6.192058 1.065201 0.000000 -36.649800 9.701528 -2.205081 2.077551 3.970261 -6.549844 -13.232669 2.082843 1.303432 -2.994512 -1.506540 -8.933800 2.051560 -2.334100 0.000000 -36.314400 1.071977 3.513956 -3.732698 0.337785 3.554464 -4.931334 0.504553 3.767492 -7.135462 -5.526928 4.654165 3.186535 -0.882489 -0.259281 3.092001 0.000000 0.000000 0.000000 3.259181 -3.106269 -4.748119 -94.335304 -24.558970 32.361638 179.616763 -52.908812 179.928803 3.265934 -7.308272 -0.233534 0.084405 1.069693 -0.000000 0.000000 0.000000 0.000000 0.000000 0.000000 0.000000 -16.606985 10.125864 -1.213400 21.463180 72.862163 -74.378119 -5.654951 9.115496 -0.086341 -12.157738 9.256299 -1.055382 0.132849 -0.512433 -0.000000 0.000000 0.000000 0.000000 0.000000 0.000000 0.000000 
3.815126 17.339176 0.887250 3.336973 -84.417720 10.205122 -11.121403 0.749054 0.771707 -5.334452 12.268668 -19.699789 -2.635239 -1.286730 -0.918607 0.189879 3.021148 6.249646 1.037400 -0.000000 -36.731200 9.704150 -1.937251 1.568480 4.090704 -6.775423 -13.034741 2.108114 1.391688 -3.242335 -1.523101 -9.209751 2.157959 -2.419600 0.000000 -36.445499 1.735287 2.746417 -2.772560 0.346617 2.698279 -5.075580 -0.321398 2.928356 -8.195535 -5.561667 3.338947 1.795412 -1.381105 -0.258772 2.687421 0.000000 0.000000 0.000000 4.337412 -0.130137 -4.912710 -93.959524 -23.228567 32.008955 179.571162 -51.350758 179.928997 3.403414 -7.293390 -0.242589 0.078568 1.024188 -0.000000 0.000000 0.000000 0.000000 0.000000 0.000000 0.000000 -15.220604 5.100458 -1.672277 53.809482 79.685757 -35.626905 -9.825844 13.564250 -0.120425 -11.948802 8.498061 -0.958837 0.033313 -0.604782 -0.000000 0.000000 0.000000 0.000000 0.000000 0.000000 0.000000 
3.801125 17.336969 0.896645 2.112706 -83.955456 11.121643 -11.105584 0.924319 1.059391 -5.141089 11.713672 -19.424447 -2.587002 -1.260443 -1.160150 0.184987 2.883587 6.319380 1.004800 0.000000 -36.838200 9.719303 -1.910492 1.508947 4.198110 -7.237914 -12.435325 2.112907 1.471066 -3.555385 -1.571561 -9.637882 2.240742 -2.534800 0.000000 -36.555300 1.684022 2.096480 -3.141529 0.430133 2.044279 -4.838117 -0.301392 2.221690 -6.989279 -4.847180 2.259587 1.433709 -1.683962 -0.265951 2.557329 0.000000 0.000000 0.000000 4.948060 0.476548 -5.066942 -93.559048 -22.797419 31.271326 179.299367 -50.825108 179.926266 3.532632 -7.231444 -0.248625 0.091506 1.014570 -0.000000 0.000000 0.000000 0.000000 0.000000 0.000000 0.000000 -12.938612 3.130558 -0.273828 66.200842 80.981964 -15.286326 -9.285507 18.472550 -0.146130 -12.544031 6.894804 -0.836977 0.022117 -0.685392 -0.000000 0.000000 0.000000 0.000000 0.000000 0.000000 0.000000 
